Format                           : MPEG-4
Format profile                   : Base Media
Codec ID                         : isom
File size                        : 350 MiB
Duration                         : 23mn 49s
Overall bit rate                 : 2 052 Kbps
Encoded date                     : UTC 2012-05-23 17:13:51
Tagged date                      : UTC 2012-05-23 17:13:51

Video
ID                               : 1
Format                           : AVC
Format/Info                      : Advanced Video Codec
Format profile                   : High@L4.0
Format settings, CABAC           : Yes
Format settings, ReFrames        : 6 frames
Codec ID                         : avc1
Codec ID/Info                    : Advanced Video Coding
Duration                         : 23mn 49s
Bit rate mode                    : Variable
Bit rate                         : 1 897 Kbps
Maximum bit rate                 : 8 500 Kbps
Width                            : 1 272 pixels
Height                           : 720 pixels
Display aspect ratio             : 16:9
Frame rate mode                  : Constant
Frame rate                       : 23.976 fps
Color space                      : YUV
Chroma subsampling               : 4:2:0
Bit depth                        : 8 bits
Scan type                        : Progressive
Bits/(Pixel*Frame)               : 0.086
Stream size                      : 323 MiB (92%)
Writing library                  : x264 core 120 r2164 da19765
Encoding settings                : cabac=1 / ref=6 / deblock=1:1:1 / analyse=0x3:0x113 / me=hex / subme=7 / psy=1 / psy_rd=0.40:0.00 / mixed_ref=1 / me_range=16 / chroma_me=1 / trellis=1 / 8x8dct=1 / cqm=0 / deadzone=21,11 / fast_pskip=1 / chroma_qp_offset=-2 / threads=4 / sliced_threads=0 / nr=0 / decimate=1 / interlaced=0 / bluray_compat=0 / constrained_intra=0 / bframes=5 / b_pyramid=2 / b_adapt=1 / b_bias=0 / direct=1 / weightb=1 / open_gop=0 / weightp=2 / keyint=240 / keyint_min=23 / scenecut=40 / intra_refresh=0 / rc_lookahead=40 / rc=2pass / mbtree=1 / bitrate=1897 / ratetol=1.0 / qcomp=0.60 / qpmin=0 / qpmax=69 / qpstep=4 / cplxblur=20.0 / qblur=0.5 / ip_ratio=1.40 / aq=1:0.60
Encoded date                     : UTC 2012-05-23 17:13:51
Tagged date                      : UTC 2012-05-23 17:16:35

Audio
ID                               : 2
Format                           : AAC
Format/Info                      : Advanced Audio Codec
Format profile                   : LC
Codec ID                         : 40
Duration                         : 23mn 49s
Bit rate mode                    : Variable
Bit rate                         : 152 Kbps
Maximum bit rate                 : 200 Kbps
Channel(s)                       : 2 channels
Channel positions                : Front: L R
Sampling rate                    : 48.0 KHz
Compression mode                 : Lossy
Stream size                      : 25.9 MiB (7%)
Encoded date                     : UTC 2012-05-23 17:16:34
Tagged date                      : UTC 2012-05-23 17:16:35